<?xml version="1.0" standalone="no"?><!DOCTYPE svg PUBLIC "-//W3C//DTD SVG 1.1//EN" "http://www.w3.org/Graphics/SVG/1.1/DTD/svg11.dtd"><svg t="1684397682590" class="icon" viewBox="0 0 1024 1024" version="1.1" xmlns="http://www.w3.org/2000/svg" p-id="14754" xmlns:xlink="http://www.w3.org/1999/xlink" width="200" height="200"><path d="M435.2 1024c-116.224 0-225.536-45.2608-307.712-127.488S0 705.024 0 588.8c0-116.224 45.2608-225.536 127.488-307.712S318.976 153.6 435.2 153.6a25.6 25.6 0 0 1 25.6 25.6V563.2h384a25.6 25.6 0 0 1 25.6 25.6c0 116.224-45.2608 225.536-127.488 307.712S551.424 1024 435.2 1024zM409.6 205.6192c-199.8336 13.2096-358.4 180.0192-358.4 383.1808C51.2 800.5632 223.4368 972.8 435.2 972.8c203.1104 0 369.92-158.5664 383.1808-358.4H435.2a25.6 25.6 0 0 1-25.6-25.6V205.6192z" fill="" p-id="14755"></path><path d="M947.2 512h-409.6a25.6 25.6 0 0 1-25.6-25.6v-409.6a25.6 25.6 0 0 1 25.6-25.6c116.224 0 225.536 45.2608 307.712 127.488S972.8 370.176 972.8 486.4a25.6 25.6 0 0 1-25.6 25.6zM563.2 460.8h357.5808A384.6656 384.6656 0 0 0 563.2 103.2192V460.8z" fill="" p-id="14756"></path></svg>